ply
format ascii 1.0
element vertex 1860
property float x
property float y
property float z
property uchar red
property uchar green
property uchar blue
end_header
0.000000 1.000000 0.000000 127 255 127
0.000000 1.000000 0.000000 127 255 127
0.000000 1.000000 0.000000 127 255 127
0.000000 1.000000 0.000000 127 255 127
0.000000 1.000000 0.000000 127 255 127
0.000000 1.000000 0.000000 127 255 127
0.000000 1.000000 0.000000 127 255 127
0.000000 1.000000 0.000000 127 255 127
0.000000 1.000000 0.000000 127 255 127
0.000000 1.000000 0.000000 127 255 127
0.000000 1.000000 0.000000 127 255 127
0.000000 1.000000 0.000000 127 255 127
0.000000 1.000000 0.000000 127 255 127
0.000000 1.000000 0.000000 127 255 127
0.000000 1.000000 0.000000 127 255 127
0.000000 1.000000 0.000000 127 255 127
-0.000000 1.000000 0.000000 127 255 127
-0.000000 1.000000 0.000000 127 255 127
-0.000000 1.000000 0.000000 127 255 127
-0.000000 1.000000 0.000000 127 255 127
-0.000000 1.000000 0.000000 127 255 127
-0.000000 1.000000 0.000000 127 255 127
-0.000000 1.000000 0.000000 127 255 127
-0.000000 1.000000 0.000000 127 255 127
-0.000000 1.000000 0.000000 127 255 127
-0.000000 1.000000 0.000000 127 255 127
-0.000000 1.000000 0.000000 127 255 127
-0.000000 1.000000 0.000000 127 255 127
-0.000000 1.000000 0.000000 127 255 127
-0.000000 1.000000 0.000000 127 255 127
-0.000000 1.000000 0.000000 127 255 127
-0.000000 1.000000 -0.000000 127 255 127
-0.000000 1.000000 -0.000000 127 255 127
-0.000000 1.000000 -0.000000 127 255 127
-0.000000 1.000000 -0.000000 127 255 127
-0.000000 1.000000 -0.000000 127 255 127
-0.000000 1.000000 -0.000000 127 255 127
-0.000000 1.000000 -0.000000 127 255 127
-0.000000 1.000000 -0.000000 127 255 127
-0.000000 1.000000 -0.000000 127 255 127
-0.000000 1.000000 -0.000000 127 255 127
-0.000000 1.000000 -0.000000 127 255 127
-0.000000 1.000000 -0.000000 127 255 127
-0.000000 1.000000 -0.000000 127 255 127
-0.000000 1.000000 -0.000000 127 255 127
-0.000000 1.000000 -0.000000 127 255 127
0.000000 1.000000 -0.000000 127 255 127
0.000000 1.000000 -0.000000 127 255 127
0.000000 1.000000 -0.000000 127 255 127
0.000000 1.000000 -0.000000 127 255 127
0.000000 1.000000 -0.000000 127 255 127
0.000000 1.000000 -0.000000 127 255 127
0.000000 1.000000 -0.000000 127 255 127
0.000000 1.000000 -0.000000 127 255 127
0.000000 1.000000 -0.000000 127 255 127
0.000000 1.000000 -0.000000 127 255 127
0.000000 1.000000 -0.000000 127 255 127
0.000000 1.000000 -0.000000 127 255 127
0.000000 1.000000 -0.000000 127 255 127
0.000000 1.000000 -0.000000 127 255 127
0.104528 0.994522 0.000000 140 254 127
0.103956 0.994522 0.010926 140 254 128
0.102244 0.994522 0.021733 140 254 130
0.099412 0.994522 0.032301 140 254 131
0.095492 0.994522 0.042516 139 254 132
0.090524 0.994522 0.052264 139 254 134
0.084565 0.994522 0.061440 138 254 135
0.077680 0.994522 0.069943 137 254 136
0.069943 0.994522 0.077680 136 254 137
0.061440 0.994522 0.084565 135 254 138
0.052264 0.994522 0.090524 134 254 139
0.042516 0.994522 0.095492 132 254 139
0.032301 0.994522 0.099412 131 254 140
0.021733 0.994522 0.102244 130 254 140
0.010926 0.994522 0.103956 128 254 140
0.000000 0.994522 0.104528 127 254 140
-0.010926 0.994522 0.103956 126 254 140
-0.021733 0.994522 0.102244 124 254 140
-0.032301 0.994522 0.099412 123 254 140
-0.042516 0.994522 0.095492 122 254 139
-0.052264 0.994522 0.090524 120 254 139
-0.061440 0.994522 0.084565 119 254 138
-0.069943 0.994522 0.077680 118 254 137
-0.077680 0.994522 0.069943 117 254 136
-0.084565 0.994522 0.061440 116 254 135
-0.090524 0.994522 0.052264 115 254 134
-0.095492 0.994522 0.042516 115 254 132
-0.099412 0.994522 0.032301 114 254 131
-0.102244 0.994522 0.021733 114 254 130
-0.103956 0.994522 0.010926 114 254 128
-0.104528 0.994522 0.000000 114 254 127
-0.103956 0.994522 -0.010926 114 254 126
-0.102244 0.994522 -0.021733 114 254 124
-0.099412 0.994522 -0.032301 114 254 123
-0.095492 0.994522 -0.042516 115 254 122
-0.090524 0.994522 -0.052264 115 254 120
-0.084565 0.994522 -0.061440 116 254 119
-0.077680 0.994522 -0.069943 117 254 118
-0.069943 0.994522 -0.077680 118 254 117
-0.061440 0.994522 -0.084565 119 254 116
-0.052264 0.994522 -0.090524 120 254 115
-0.042516 0.994522 -0.095492 122 254 115
-0.032301 0.994522 -0.099412 123 254 114
-0.021733 0.994522 -0.102244 124 254 114
-0.010926 0.994522 -0.103956 126 254 114
-0.000000 0.994522 -0.104528 127 254 114
0.010926 0.994522 -0.103956 128 254 114
0.021733 0.994522 -0.102244 130 254 114
0.032301 0.994522 -0.099412 131 254 114
0.042516 0.994522 -0.095492 132 254 115
0.052264 0.994522 -0.090524 134 254 115
0.061440 0.994522 -0.084565 135 254 116
0.069943 0.994522 -0.077680 136 254 117
0.077680 0.994522 -0.069943 137 254 118
0.084565 0.994522 -0.061440 138 254 119
0.090524 0.994522 -0.052264 139 254 120
0.095492 0.994522 -0.042516 139 254 122
0.099412 0.994522 -0.032301 140 254 123
0.102244 0.994522 -0.021733 140 254 124
0.103956 0.994522 -0.010926 140 254 126
0.207912 0.978148 0.000000 154 252 127
0.206773 0.978148 0.021733 153 252 130
0.203368 0.978148 0.043227 153 252 133
0.197736 0.978148 0.064248 152 252 135
0.189937 0.978148 0.084565 151 252 138
0.180057 0.978148 0.103956 150 252 140
0.168204 0.978148 0.122207 148 252 143
0.154508 0.978148 0.139120 147 252 145
0.139120 0.978148 0.154508 145 252 147
0.122207 0.978148 0.168204 143 252 148
0.103956 0.978148 0.180057 140 252 150
0.084565 0.978148 0.189937 138 252 151
0.064248 0.978148 0.197736 135 252 152
0.043227 0.978148 0.203368 133 252 153
0.021733 0.978148 0.206773 130 252 153
0.000000 0.978148 0.207912 127 252 154
-0.021733 0.978148 0.206773 124 252 153
-0.043227 0.978148 0.203368 121 252 153
-0.064248 0.978148 0.197736 119 252 152
-0.084565 0.978148 0.189937 116 252 151
-0.103956 0.978148 0.180057 114 252 150
-0.122207 0.978148 0.168204 111 252 148
-0.139120 0.978148 0.154508 109 252 147
-0.154508 0.978148 0.139120 107 252 145
-0.168204 0.978148 0.122207 106 252 143
-0.180057 0.978148 0.103956 104 252 140
-0.189937 0.978148 0.084565 103 252 138
-0.197736 0.978148 0.064248 102 252 135
-0.203368 0.978148 0.043227 101 252 133
-0.206773 0.978148 0.021733 101 252 130
-0.207912 0.978148 0.000000 100 252 127
-0.206773 0.978148 -0.021733 101 252 124
-0.203368 0.978148 -0.043227 101 252 121
-0.197736 0.978148 -0.064248 102 252 119
-0.189937 0.978148 -0.084565 103 252 116
-0.180057 0.978148 -0.103956 104 252 114
-0.168204 0.978148 -0.122207 106 252 111
-0.154508 0.978148 -0.139120 107 252 109
-0.139120 0.978148 -0.154508 109 252 107
-0.122207 0.978148 -0.168204 111 252 106
-0.103956 0.978148 -0.180057 114 252 104
-0.084565 0.978148 -0.189937 116 252 103
-0.064248 0.978148 -0.197736 119 252 102
-0.043227 0.978148 -0.203368 121 252 101
-0.021733 0.978148 -0.206773 124 252 101
-0.000000 0.978148 -0.207912 127 252 100
0.021733 0.978148 -0.206773 130 252 101
0.043227 0.978148 -0.203368 133 252 101
0.064248 0.978148 -0.197736 135 252 102
0.084565 0.978148 -0.189937 138 252 103
0.103956 0.978148 -0.180057 140 252 104
0.122207 0.978148 -0.168204 143 252 106
0.139120 0.978148 -0.154508 145 252 107
0.154508 0.978148 -0.139120 147 252 109
0.168204 0.978148 -0.122207 148 252 111
0.180057 0.978148 -0.103956 150 252 114
0.189937 0.978148 -0.084565 151 252 116
0.197736 0.978148 -0.064248 152 252 119
0.203368 0.978148 -0.043227 153 252 121
0.206773 0.978148 -0.021733 153 252 124
0.309017 0.951057 0.000000 166 248 127
0.307324 0.951057 0.032301 166 248 131
0.302264 0.951057 0.064248 166 248 135
0.293893 0.951057 0.095492 164 248 139
0.282301 0.951057 0.125689 163 248 143
0.267617 0.951057 0.154508 161 248 147
0.250000 0.951057 0.181636 159 248 150
0.229644 0.951057 0.206773 156 248 153
0.206773 0.951057 0.229644 153 248 156
0.181636 0.951057 0.250000 150 248 159
0.154508 0.951057 0.267617 147 248 161
0.125689 0.951057 0.282301 143 248 163
0.095492 0.951057 0.293893 139 248 164
0.064248 0.951057 0.302264 135 248 166
0.032301 0.951057 0.307324 131 248 166
0.000000 0.951057 0.309017 127 248 166
-0.032301 0.951057 0.307324 123 248 166
-0.064248 0.951057 0.302264 119 248 166
-0.095492 0.951057 0.293893 115 248 164
-0.125689 0.951057 0.282301 111 248 163
-0.154508 0.951057 0.267617 107 248 161
-0.181636 0.951057 0.250000 104 248 159
-0.206773 0.951057 0.229644 101 248 156
-0.229644 0.951057 0.206773 98 248 153
-0.250000 0.951057 0.181636 95 248 150
-0.267617 0.951057 0.154508 93 248 147
-0.282301 0.951057 0.125689 91 248 143
-0.293893 0.951057 0.095492 90 248 139
-0.302264 0.951057 0.064248 88 248 135
-0.307324 0.951057 0.032301 88 248 131
-0.309017 0.951057 0.000000 88 248 127
-0.307324 0.951057 -0.032301 88 248 123
-0.302264 0.951057 -0.064248 88 248 119
-0.293893 0.951057 -0.095492 90 248 115
-0.282301 0.951057 -0.125689 91 248 111
-0.267617 0.951057 -0.154508 93 248 107
-0.250000 0.951057 -0.181636 95 248 104
-0.229644 0.951057 -0.206773 98 248 101
-0.206773 0.951057 -0.229644 101 248 98
-0.181636 0.951057 -0.250000 104 248 95
-0.154508 0.951057 -0.267617 107 248 93
-0.125689 0.951057 -0.282301 111 248 91
-0.095492 0.951057 -0.293893 115 248 90
-0.064248 0.951057 -0.302264 119 248 88
-0.032301 0.951057 -0.307324 123 248 88
-0.000000 0.951057 -0.309017 127 248 88
0.032301 0.951057 -0.307324 131 248 88
0.064248 0.951057 -0.302264 135 248 88
0.095492 0.951057 -0.293893 139 248 90
0.125689 0.951057 -0.282301 143 248 91
0.154508 0.951057 -0.267617 147 248 93
0.181636 0.951057 -0.250000 150 248 95
0.206773 0.951057 -0.229644 153 248 98
0.229644 0.951057 -0.206773 156 248 101
0.250000 0.951057 -0.181636 159 248 104
0.267617 0.951057 -0.154508 161 248 107
0.282301 0.951057 -0.125689 163 248 111
0.293893 0.951057 -0.095492 164 248 115
0.302264 0.951057 -0.064248 166 248 119
0.307324 0.951057 -0.032301 166 248 123
0.406737 0.913545 0.000000 179 243 127
0.404508 0.913545 0.042516 179 243 132
0.397848 0.913545 0.084565 178 243 138
0.386830 0.913545 0.125689 176 243 143
0.371572 0.913545 0.165435 174 243 148
0.352244 0.913545 0.203368 172 243 153
0.329057 0.913545 0.239074 169 243 157
0.302264 0.913545 0.272160 166 243 162
0.272160 0.913545 0.302264 162 243 166
0.239074 0.913545 0.329057 157 243 169
0.203368 0.913545 0.352244 153 243 172
0.165435 0.913545 0.371572 148 243 174
0.125689 0.913545 0.386830 143 243 176
0.084565 0.913545 0.397848 138 243 178
0.042516 0.913545 0.404508 132 243 179
0.000000 0.913545 0.406737 127 243 179
-0.042516 0.913545 0.404508 122 243 179
-0.084565 0.913545 0.397848 116 243 178
-0.125689 0.913545 0.386830 111 243 176
-0.165435 0.913545 0.371572 106 243 174
-0.203368 0.913545 0.352244 101 243 172
-0.239074 0.913545 0.329057 97 243 169
-0.272160 0.913545 0.302264 92 243 166
-0.302264 0.913545 0.272160 88 243 162
-0.329057 0.913545 0.239074 85 243 157
-0.352244 0.913545 0.203368 82 243 153
-0.371572 0.913545 0.165435 80 243 148
-0.386830 0.913545 0.125689 78 243 143
-0.397848 0.913545 0.084565 76 243 138
-0.404508 0.913545 0.042516 75 243 132
-0.406737 0.913545 0.000000 75 243 127
-0.404508 0.913545 -0.042516 75 243 122
-0.397848 0.913545 -0.084565 76 243 116
-0.386830 0.913545 -0.125689 78 243 111
-0.371572 0.913545 -0.165435 80 243 106
-0.352244 0.913545 -0.203368 82 243 101
-0.329057 0.913545 -0.239074 85 243 97
-0.302264 0.913545 -0.272160 88 243 92
-0.272160 0.913545 -0.302264 92 243 88
-0.239074 0.913545 -0.329057 97 243 85
-0.203368 0.913545 -0.352244 101 243 82
-0.165435 0.913545 -0.371572 106 243 80
-0.125689 0.913545 -0.386830 111 243 78
-0.084565 0.913545 -0.397848 116 243 76
-0.042516 0.913545 -0.404508 122 243 75
-0.000000 0.913545 -0.406737 127 243 75
0.042516 0.913545 -0.404508 132 243 75
0.084565 0.913545 -0.397848 138 243 76
0.125689 0.913545 -0.386830 143 243 78
0.165435 0.913545 -0.371572 148 243 80
0.203368 0.913545 -0.352244 153 243 82
0.239074 0.913545 -0.329057 157 243 85
0.272160 0.913545 -0.302264 162 243 88
0.302264 0.913545 -0.272160 166 243 92
0.329057 0.913545 -0.239074 169 243 97
0.352244 0.913545 -0.203368 172 243 101
0.371572 0.913545 -0.165435 174 243 106
0.386830 0.913545 -0.125689 176 243 111
0.397848 0.913545 -0.084565 178 243 116
0.404508 0.913545 -0.042516 179 243 122
0.500000 0.866025 0.000000 191 237 127
0.497261 0.866025 0.052264 190 237 134
0.489074 0.866025 0.103956 189 237 140
0.475528 0.866025 0.154508 188 237 147
0.456773 0.866025 0.203368 185 237 153
0.433013 0.866025 0.250000 182 237 159
0.404508 0.866025 0.293893 179 237 164
0.371572 0.866025 0.334565 174 237 170
0.334565 0.866025 0.371572 170 237 174
0.293893 0.866025 0.404508 164 237 179
0.250000 0.866025 0.433013 159 237 182
0.203368 0.866025 0.456773 153 237 185
0.154508 0.866025 0.475528 147 237 188
0.103956 0.866025 0.489074 140 237 189
0.052264 0.866025 0.497261 134 237 190
0.000000 0.866025 0.500000 127 237 191
-0.052264 0.866025 0.497261 120 237 190
-0.103956 0.866025 0.489074 114 237 189
-0.154508 0.866025 0.475528 107 237 188
-0.203368 0.866025 0.456773 101 237 185
-0.250000 0.866025 0.433013 95 237 182
-0.293893 0.866025 0.404508 90 237 179
-0.334565 0.866025 0.371572 84 237 174
-0.371572 0.866025 0.334565 80 237 170
-0.404508 0.866025 0.293893 75 237 164
-0.433013 0.866025 0.250000 72 237 159
-0.456773 0.866025 0.203368 69 237 153
-0.475528 0.866025 0.154508 66 237 147
-0.489074 0.866025 0.103956 65 237 140
-0.497261 0.866025 0.052264 64 237 134
-0.500000 0.866025 0.000000 63 237 127
-0.497261 0.866025 -0.052264 64 237 120
-0.489074 0.866025 -0.103956 65 237 114
-0.475528 0.866025 -0.154508 66 237 107
-0.456773 0.866025 -0.203368 69 237 101
-0.433013 0.866025 -0.250000 72 237 95
-0.404508 0.866025 -0.293893 75 237 90
-0.371572 0.866025 -0.334565 80 237 84
-0.334565 0.866025 -0.371572 84 237 80
-0.293893 0.866025 -0.404508 90 237 75
-0.250000 0.866025 -0.433013 95 237 72
-0.203368 0.866025 -0.456773 101 237 69
-0.154508 0.866025 -0.475528 107 237 66
-0.103956 0.866025 -0.489074 114 237 65
-0.052264 0.866025 -0.497261 120 237 64
-0.000000 0.866025 -0.500000 127 237 63
0.052264 0.866025 -0.497261 134 237 64
0.103956 0.866025 -0.489074 140 237 65
0.154508 0.866025 -0.475528 147 237 66
0.203368 0.866025 -0.456773 153 237 69
0.250000 0.866025 -0.433013 159 237 72
0.293893 0.866025 -0.404508 164 237 75
0.334565 0.866025 -0.371572 170 237 80
0.371572 0.866025 -0.334565 174 237 84
0.404508 0.866025 -0.293893 179 237 90
0.433013 0.866025 -0.250000 182 237 95
0.456773 0.866025 -0.203368 185 237 101
0.475528 0.866025 -0.154508 188 237 107
0.489074 0.866025 -0.103956 189 237 114
0.497261 0.866025 -0.052264 190 237 120
0.587785 0.809017 0.000000 202 230 127
0.584565 0.809017 0.061440 202 230 135
0.574941 0.809017 0.122207 200 230 143
0.559017 0.809017 0.181636 198 230 150
0.536969 0.809017 0.239074 195 230 157
0.509037 0.809017 0.293893 192 230 164
0.475528 0.809017 0.345492 188 230 171
0.436810 0.809017 0.393305 183 230 177
0.393305 0.809017 0.436810 177 230 183
0.345492 0.809017 0.475528 171 230 188
0.293893 0.809017 0.509037 164 230 192
0.239074 0.809017 0.536969 157 230 195
0.181636 0.809017 0.559017 150 230 198
0.122207 0.809017 0.574941 143 230 200
0.061440 0.809017 0.584565 135 230 202
0.000000 0.809017 0.587785 127 230 202
-0.061440 0.809017 0.584565 119 230 202
-0.122207 0.809017 0.574941 111 230 200
-0.181636 0.809017 0.559017 104 230 198
-0.239074 0.809017 0.536969 97 230 195
-0.293893 0.809017 0.509037 90 230 192
-0.345492 0.809017 0.475528 83 230 188
-0.393305 0.809017 0.436810 77 230 183
-0.436810 0.809017 0.393305 71 230 177
-0.475528 0.809017 0.345492 66 230 171
-0.509037 0.809017 0.293893 62 230 164
-0.536969 0.809017 0.239074 59 230 157
-0.559017 0.809017 0.181636 56 230 150
-0.574941 0.809017 0.122207 54 230 143
-0.584565 0.809017 0.061440 52 230 135
-0.587785 0.809017 0.000000 52 230 127
-0.584565 0.809017 -0.061440 52 230 119
-0.574941 0.809017 -0.122207 54 230 111
-0.559017 0.809017 -0.181636 56 230 104
-0.536969 0.809017 -0.239074 59 230 97
-0.509037 0.809017 -0.293893 62 230 90
-0.475528 0.809017 -0.345492 66 230 83
-0.436810 0.809017 -0.393305 71 230 77
-0.393305 0.809017 -0.436810 77 230 71
-0.345492 0.809017 -0.475528 83 230 66
-0.293893 0.809017 -0.509037 90 230 62
-0.239074 0.809017 -0.536969 97 230 59
-0.181636 0.809017 -0.559017 104 230 56
-0.122207 0.809017 -0.574941 111 230 54
-0.061440 0.809017 -0.584565 119 230 52
-0.000000 0.809017 -0.587785 127 230 52
0.061440 0.809017 -0.584565 135 230 52
0.122207 0.809017 -0.574941 143 230 54
0.181636 0.809017 -0.559017 150 230 56
0.239074 0.809017 -0.536969 157 230 59
0.293893 0.809017 -0.509037 164 230 62
0.345492 0.809017 -0.475528 171 230 66
0.393305 0.809017 -0.436810 177 230 71
0.436810 0.809017 -0.393305 183 230 77
0.475528 0.809017 -0.345492 188 230 83
0.509037 0.809017 -0.293893 192 230 90
0.536969 0.809017 -0.239074 195 230 97
0.559017 0.809017 -0.181636 198 230 104
0.574941 0.809017 -0.122207 200 230 111
0.584565 0.809017 -0.061440 202 230 119
0.669131 0.743145 0.000000 212 222 127
0.665465 0.743145 0.069943 212 222 136
0.654508 0.743145 0.139120 210 222 145
0.636381 0.743145 0.206773 208 222 153
0.611281 0.743145 0.272160 205 222 162
0.579484 0.743145 0.334565 201 222 170
0.541338 0.743145 0.393305 196 222 177
0.497261 0.743145 0.447736 190 222 184
0.447736 0.743145 0.497261 184 222 190
0.393305 0.743145 0.541338 177 222 196
0.334565 0.743145 0.579484 170 222 201
0.272160 0.743145 0.611281 162 222 205
0.206773 0.743145 0.636381 153 222 208
0.139120 0.743145 0.654508 145 222 210
0.069943 0.743145 0.665465 136 222 212
0.000000 0.743145 0.669131 127 222 212
-0.069943 0.743145 0.665465 118 222 212
-0.139120 0.743145 0.654508 109 222 210
-0.206773 0.743145 0.636381 101 222 208
-0.272160 0.743145 0.611281 92 222 205
-0.334565 0.743145 0.579484 84 222 201
-0.393305 0.743145 0.541338 77 222 196
-0.447736 0.743145 0.497261 70 222 190
-0.497261 0.743145 0.447736 64 222 184
-0.541338 0.743145 0.393305 58 222 177
-0.579484 0.743145 0.334565 53 222 170
-0.611281 0.743145 0.272160 49 222 162
-0.636381 0.743145 0.206773 46 222 153
-0.654508 0.743145 0.139120 44 222 145
-0.665465 0.743145 0.069943 42 222 136
-0.669131 0.743145 0.000000 42 222 127
-0.665465 0.743145 -0.069943 42 222 118
-0.654508 0.743145 -0.139120 44 222 109
-0.636381 0.743145 -0.206773 46 222 101
-0.611281 0.743145 -0.272160 49 222 92
-0.579484 0.743145 -0.334565 53 222 84
-0.541338 0.743145 -0.393305 58 222 77
-0.497261 0.743145 -0.447736 64 222 70
-0.447736 0.743145 -0.497261 70 222 64
-0.393305 0.743145 -0.541338 77 222 58
-0.334565 0.743145 -0.579484 84 222 53
-0.272160 0.743145 -0.611281 92 222 49
-0.206773 0.743145 -0.636381 101 222 46
-0.139120 0.743145 -0.654508 109 222 44
-0.069943 0.743145 -0.665465 118 222 42
-0.000000 0.743145 -0.669131 127 222 42
0.069943 0.743145 -0.665465 136 222 42
0.139120 0.743145 -0.654508 145 222 44
0.206773 0.743145 -0.636381 153 222 46
0.272160 0.743145 -0.611281 162 222 49
0.334565 0.743145 -0.579484 170 222 53
0.393305 0.743145 -0.541338 177 222 58
0.447736 0.743145 -0.497261 184 222 64
0.497261 0.743145 -0.447736 190 222 70
0.541338 0.743145 -0.393305 196 222 77
0.579484 0.743145 -0.334565 201 222 84
0.611281 0.743145 -0.272160 205 222 92
0.636381 0.743145 -0.206773 208 222 101
0.654508 0.743145 -0.139120 210 222 109
0.665465 0.743145 -0.069943 212 222 118
0.743145 0.669131 0.000000 222 212 127
0.739074 0.669131 0.077680 221 212 137
0.726905 0.669131 0.154508 220 212 147
0.706773 0.669131 0.229644 217 212 156
0.678897 0.669131 0.302264 214 212 166
0.643582 0.669131 0.371572 209 212 174
0.601217 0.669131 0.436810 204 212 183
0.552264 0.669131 0.497261 197 212 190
0.497261 0.669131 0.552264 190 212 197
0.436810 0.669131 0.601217 183 212 204
0.371572 0.669131 0.643582 174 212 209
0.302264 0.669131 0.678897 166 212 214
0.229644 0.669131 0.706773 156 212 217
0.154508 0.669131 0.726905 147 212 220
0.077680 0.669131 0.739074 137 212 221
0.000000 0.669131 0.743145 127 212 222
-0.077680 0.669131 0.739074 117 212 221
-0.154508 0.669131 0.726905 107 212 220
-0.229644 0.669131 0.706773 98 212 217
-0.302264 0.669131 0.678897 88 212 214
-0.371572 0.669131 0.643582 80 212 209
-0.436810 0.669131 0.601217 71 212 204
-0.497261 0.669131 0.552264 64 212 197
-0.552264 0.669131 0.497261 57 212 190
-0.601217 0.669131 0.436810 50 212 183
-0.643582 0.669131 0.371572 45 212 174
-0.678897 0.669131 0.302264 40 212 166
-0.706773 0.669131 0.229644 37 212 156
-0.726905 0.669131 0.154508 34 212 147
-0.739074 0.669131 0.077680 33 212 137
-0.743145 0.669131 0.000000 32 212 127
-0.739074 0.669131 -0.077680 33 212 117
-0.726905 0.669131 -0.154508 34 212 107
-0.706773 0.669131 -0.229644 37 212 98
-0.678897 0.669131 -0.302264 40 212 88
-0.643582 0.669131 -0.371572 45 212 80
-0.601217 0.669131 -0.436810 50 212 71
-0.552264 0.669131 -0.497261 57 212 64
-0.497261 0.669131 -0.552264 64 212 57
-0.436810 0.669131 -0.601217 71 212 50
-0.371572 0.669131 -0.643582 80 212 45
-0.302264 0.669131 -0.678897 88 212 40
-0.229644 0.669131 -0.706773 98 212 37
-0.154508 0.669131 -0.726905 107 212 34
-0.077680 0.669131 -0.739074 117 212 33
-0.000000 0.669131 -0.743145 127 212 32
0.077680 0.669131 -0.739074 137 212 33
0.154508 0.669131 -0.726905 147 212 34
0.229644 0.669131 -0.706773 156 212 37
0.302264 0.669131 -0.678897 166 212 40
0.371572 0.669131 -0.643582 174 212 45
0.436810 0.669131 -0.601217 183 212 50
0.497261 0.669131 -0.552264 190 212 57
0.552264 0.669131 -0.497261 197 212 64
0.601217 0.669131 -0.436810 204 212 71
0.643582 0.669131 -0.371572 209 212 80
0.678897 0.669131 -0.302264 214 212 88
0.706773 0.669131 -0.229644 217 212 98
0.726905 0.669131 -0.154508 220 212 107
0.739074 0.669131 -0.077680 221 212 117
0.809017 0.587785 0.000000 230 202 127
0.804585 0.587785 0.084565 230 202 138
0.791338 0.587785 0.168204 228 202 148
0.769421 0.587785 0.250000 225 202 159
0.739074 0.587785 0.329057 221 202 169
0.700629 0.587785 0.404508 216 202 179
0.654508 0.587785 0.475528 210 202 188
0.601217 0.587785 0.541338 204 202 196
0.541338 0.587785 0.601217 196 202 204
0.475528 0.587785 0.654508 188 202 210
0.404508 0.587785 0.700629 179 202 216
0.329057 0.587785 0.739074 169 202 221
0.250000 0.587785 0.769421 159 202 225
0.168204 0.587785 0.791338 148 202 228
0.084565 0.587785 0.804585 138 202 230
0.000000 0.587785 0.809017 127 202 230
-0.084565 0.587785 0.804585 116 202 230
-0.168204 0.587785 0.791338 106 202 228
-0.250000 0.587785 0.769421 95 202 225
-0.329057 0.587785 0.739074 85 202 221
-0.404508 0.587785 0.700629 75 202 216
-0.475528 0.587785 0.654508 66 202 210
-0.541338 0.587785 0.601217 58 202 204
-0.601217 0.587785 0.541338 50 202 196
-0.654508 0.587785 0.475528 44 202 188
-0.700629 0.587785 0.404508 38 202 179
-0.739074 0.587785 0.329057 33 202 169
-0.769421 0.587785 0.250000 29 202 159
-0.791338 0.587785 0.168204 26 202 148
-0.804585 0.587785 0.084565 24 202 138
-0.809017 0.587785 0.000000 24 202 127
-0.804585 0.587785 -0.084565 24 202 116
-0.791338 0.587785 -0.168204 26 202 106
-0.769421 0.587785 -0.250000 29 202 95
-0.739074 0.587785 -0.329057 33 202 85
-0.700629 0.587785 -0.404508 38 202 75
-0.654508 0.587785 -0.475528 44 202 66
-0.601217 0.587785 -0.541338 50 202 58
-0.541338 0.587785 -0.601217 58 202 50
-0.475528 0.587785 -0.654508 66 202 44
-0.404508 0.587785 -0.700629 75 202 38
-0.329057 0.587785 -0.739074 85 202 33
-0.250000 0.587785 -0.769421 95 202 29
-0.168204 0.587785 -0.791338 106 202 26
-0.084565 0.587785 -0.804585 116 202 24
-0.000000 0.587785 -0.809017 127 202 24
0.084565 0.587785 -0.804585 138 202 24
0.168204 0.587785 -0.791338 148 202 26
0.250000 0.587785 -0.769421 159 202 29
0.329057 0.587785 -0.739074 169 202 33
0.404508 0.587785 -0.700629 179 202 38
0.475528 0.587785 -0.654508 188 202 44
0.541338 0.587785 -0.601217 196 202 50
0.601217 0.587785 -0.541338 204 202 58
0.654508 0.587785 -0.475528 210 202 66
0.700629 0.587785 -0.404508 216 202 75
0.739074 0.587785 -0.329057 221 202 85
0.769421 0.587785 -0.250000 225 202 95
0.791338 0.587785 -0.168204 228 202 106
0.804585 0.587785 -0.084565 230 202 116
0.866025 0.500000 0.000000 237 191 127
0.861281 0.500000 0.090524 237 191 139
0.847101 0.500000 0.180057 235 191 150
0.823639 0.500000 0.267617 232 191 161
0.791154 0.500000 0.352244 228 191 172
0.750000 0.500000 0.433013 223 191 182
0.700629 0.500000 0.509037 216 191 192
0.643582 0.500000 0.579484 209 191 201
0.579484 0.500000 0.643582 201 191 209
0.509037 0.500000 0.700629 192 191 216
0.433013 0.500000 0.750000 182 191 223
0.352244 0.500000 0.791154 172 191 228
0.267617 0.500000 0.823639 161 191 232
0.180057 0.500000 0.847101 150 191 235
0.090524 0.500000 0.861281 139 191 237
0.000000 0.500000 0.866025 127 191 237
-0.090524 0.500000 0.861281 115 191 237
-0.180057 0.500000 0.847101 104 191 235
-0.267617 0.500000 0.823639 93 191 232
-0.352244 0.500000 0.791154 82 191 228
-0.433013 0.500000 0.750000 72 191 223
-0.509037 0.500000 0.700629 62 191 216
-0.579484 0.500000 0.643582 53 191 209
-0.643582 0.500000 0.579484 45 191 201
-0.700629 0.500000 0.509037 38 191 192
-0.750000 0.500000 0.433013 31 191 182
-0.791154 0.500000 0.352244 26 191 172
-0.823639 0.500000 0.267617 22 191 161
-0.847101 0.500000 0.180057 19 191 150
-0.861281 0.500000 0.090524 17 191 139
-0.866025 0.500000 0.000000 17 191 127
-0.861281 0.500000 -0.090524 17 191 115
-0.847101 0.500000 -0.180057 19 191 104
-0.823639 0.500000 -0.267617 22 191 93
-0.791154 0.500000 -0.352244 26 191 82
-0.750000 0.500000 -0.433013 31 191 72
-0.700629 0.500000 -0.509037 38 191 62
-0.643582 0.500000 -0.579484 45 191 53
-0.579484 0.500000 -0.643582 53 191 45
-0.509037 0.500000 -0.700629 62 191 38
-0.433013 0.500000 -0.750000 72 191 31
-0.352244 0.500000 -0.791154 82 191 26
-0.267617 0.500000 -0.823639 93 191 22
-0.180057 0.500000 -0.847101 104 191 19
-0.090524 0.500000 -0.861281 115 191 17
-0.000000 0.500000 -0.866025 127 191 17
0.090524 0.500000 -0.861281 139 191 17
0.180057 0.500000 -0.847101 150 191 19
0.267617 0.500000 -0.823639 161 191 22
0.352244 0.500000 -0.791154 172 191 26
0.433013 0.500000 -0.750000 182 191 31
0.509037 0.500000 -0.700629 192 191 38
0.579484 0.500000 -0.643582 201 191 45
0.643582 0.500000 -0.579484 209 191 53
0.700629 0.500000 -0.509037 216 191 62
0.750000 0.500000 -0.433013 223 191 72
0.791154 0.500000 -0.352244 228 191 82
0.823639 0.500000 -0.267617 232 191 93
0.847101 0.500000 -0.180057 235 191 104
0.861281 0.500000 -0.090524 237 191 115
0.913545 0.406737 0.000000 243 179 127
0.908541 0.406737 0.095492 243 179 139
0.893582 0.406737 0.189937 241 179 151
0.868833 0.406737 0.282301 238 179 163
0.834565 0.406737 0.371572 233 179 174
0.791154 0.406737 0.456773 228 179 185
0.739074 0.406737 0.536969 221 179 195
0.678897 0.406737 0.611281 214 179 205
0.611281 0.406737 0.678897 205 179 214
0.536969 0.406737 0.739074 195 179 221
0.456773 0.406737 0.791154 185 179 228
0.371572 0.406737 0.834565 174 179 233
0.282301 0.406737 0.868833 163 179 238
0.189937 0.406737 0.893582 151 179 241
0.095492 0.406737 0.908541 139 179 243
0.000000 0.406737 0.913545 127 179 243
-0.095492 0.406737 0.908541 115 179 243
-0.189937 0.406737 0.893582 103 179 241
-0.282301 0.406737 0.868833 91 179 238
-0.371572 0.406737 0.834565 80 179 233
-0.456773 0.406737 0.791154 69 179 228
-0.536969 0.406737 0.739074 59 179 221
-0.611281 0.406737 0.678897 49 179 214
-0.678897 0.406737 0.611281 40 179 205
-0.739074 0.406737 0.536969 33 179 195
-0.791154 0.406737 0.456773 26 179 185
-0.834565 0.406737 0.371572 21 179 174
-0.868833 0.406737 0.282301 16 179 163
-0.893582 0.406737 0.189937 13 179 151
-0.908541 0.406737 0.095492 11 179 139
-0.913545 0.406737 0.000000 11 179 127
-0.908541 0.406737 -0.095492 11 179 115
-0.893582 0.406737 -0.189937 13 179 103
-0.868833 0.406737 -0.282301 16 179 91
-0.834565 0.406737 -0.371572 21 179 80
-0.791154 0.406737 -0.456773 26 179 69
-0.739074 0.406737 -0.536969 33 179 59
-0.678897 0.406737 -0.611281 40 179 49
-0.611281 0.406737 -0.678897 49 179 40
-0.536969 0.406737 -0.739074 59 179 33
-0.456773 0.406737 -0.791154 69 179 26
-0.371572 0.406737 -0.834565 80 179 21
-0.282301 0.406737 -0.868833 91 179 16
-0.189937 0.406737 -0.893582 103 179 13
-0.095492 0.406737 -0.908541 115 179 11
-0.000000 0.406737 -0.913545 127 179 11
0.095492 0.406737 -0.908541 139 179 11
0.189937 0.406737 -0.893582 151 179 13
0.282301 0.406737 -0.868833 163 179 16
0.371572 0.406737 -0.834565 174 179 21
0.456773 0.406737 -0.791154 185 179 26
0.536969 0.406737 -0.739074 195 179 33
0.611281 0.406737 -0.678897 205 179 40
0.678897 0.406737 -0.611281 214 179 49
0.739074 0.406737 -0.536969 221 179 59
0.791154 0.406737 -0.456773 228 179 69
0.834565 0.406737 -0.371572 233 179 80
0.868833 0.406737 -0.282301 238 179 91
0.893582 0.406737 -0.189937 241 179 103
0.908541 0.406737 -0.095492 243 179 115
0.951057 0.309017 0.000000 248 166 127
0.945847 0.309017 0.099412 248 166 140
0.930274 0.309017 0.197736 246 166 152
0.904508 0.309017 0.293893 242 166 164
0.868833 0.309017 0.386830 238 166 176
0.823639 0.309017 0.475528 232 166 188
0.769421 0.309017 0.559017 225 166 198
0.706773 0.309017 0.636381 217 166 208
0.636381 0.309017 0.706773 208 166 217
0.559017 0.309017 0.769421 198 166 225
0.475528 0.309017 0.823639 188 166 232
0.386830 0.309017 0.868833 176 166 238
0.293893 0.309017 0.904508 164 166 242
0.197736 0.309017 0.930274 152 166 246
0.099412 0.309017 0.945847 140 166 248
0.000000 0.309017 0.951057 127 166 248
-0.099412 0.309017 0.945847 114 166 248
-0.197736 0.309017 0.930274 102 166 246
-0.293893 0.309017 0.904508 90 166 242
-0.386830 0.309017 0.868833 78 166 238
-0.475528 0.309017 0.823639 66 166 232
-0.559017 0.309017 0.769421 56 166 225
-0.636381 0.309017 0.706773 46 166 217
-0.706773 0.309017 0.636381 37 166 208
-0.769421 0.309017 0.559017 29 166 198
-0.823639 0.309017 0.475528 22 166 188
-0.868833 0.309017 0.386830 16 166 176
-0.904508 0.309017 0.293893 12 166 164
-0.930274 0.309017 0.197736 8 166 152
-0.945847 0.309017 0.099412 6 166 140
-0.951057 0.309017 0.000000 6 166 127
-0.945847 0.309017 -0.099412 6 166 114
-0.930274 0.309017 -0.197736 8 166 102
-0.904508 0.309017 -0.293893 12 166 90
-0.868833 0.309017 -0.386830 16 166 78
-0.823639 0.309017 -0.475528 22 166 66
-0.769421 0.309017 -0.559017 29 166 56
-0.706773 0.309017 -0.636381 37 166 46
-0.636381 0.309017 -0.706773 46 166 37
-0.559017 0.309017 -0.769421 56 166 29
-0.475528 0.309017 -0.823639 66 166 22
-0.386830 0.309017 -0.868833 78 166 16
-0.293893 0.309017 -0.904508 90 166 12
-0.197736 0.309017 -0.930274 102 166 8
-0.099412 0.309017 -0.945847 114 166 6
-0.000000 0.309017 -0.951057 127 166 6
0.099412 0.309017 -0.945847 140 166 6
0.197736 0.309017 -0.930274 152 166 8
0.293893 0.309017 -0.904508 164 166 12
0.386830 0.309017 -0.868833 176 166 16
0.475528 0.309017 -0.823639 188 166 22
0.559017 0.309017 -0.769421 198 166 29
0.636381 0.309017 -0.706773 208 166 37
0.706773 0.309017 -0.636381 217 166 46
0.769421 0.309017 -0.559017 225 166 56
0.823639 0.309017 -0.475528 232 166 66
0.868833 0.309017 -0.386830 238 166 78
0.904508 0.309017 -0.293893 242 166 90
0.930274 0.309017 -0.197736 246 166 102
0.945847 0.309017 -0.099412 248 166 114
0.978148 0.207912 0.000000 252 154 127
0.972789 0.207912 0.102244 251 154 140
0.956773 0.207912 0.203368 249 154 153
0.930274 0.207912 0.302264 246 154 166
0.893582 0.207912 0.397848 241 154 178
0.847101 0.207912 0.489074 235 154 189
0.791338 0.207912 0.574941 228 154 200
0.726905 0.207912 0.654508 220 154 210
0.654508 0.207912 0.726905 210 154 220
0.574941 0.207912 0.791338 200 154 228
0.489074 0.207912 0.847101 189 154 235
0.397848 0.207912 0.893582 178 154 241
0.302264 0.207912 0.930274 166 154 246
0.203368 0.207912 0.956773 153 154 249
0.102244 0.207912 0.972789 140 154 251
0.000000 0.207912 0.978148 127 154 252
-0.102244 0.207912 0.972789 114 154 251
-0.203368 0.207912 0.956773 101 154 249
-0.302264 0.207912 0.930274 88 154 246
-0.397848 0.207912 0.893582 76 154 241
-0.489074 0.207912 0.847101 65 154 235
-0.574941 0.207912 0.791338 54 154 228
-0.654508 0.207912 0.726905 44 154 220
-0.726905 0.207912 0.654508 34 154 210
-0.791338 0.207912 0.574941 26 154 200
-0.847101 0.207912 0.489074 19 154 189
-0.893582 0.207912 0.397848 13 154 178
-0.930274 0.207912 0.302264 8 154 166
-0.956773 0.207912 0.203368 5 154 153
-0.972789 0.207912 0.102244 3 154 140
-0.978148 0.207912 0.000000 2 154 127
-0.972789 0.207912 -0.102244 3 154 114
-0.956773 0.207912 -0.203368 5 154 101
-0.930274 0.207912 -0.302264 8 154 88
-0.893582 0.207912 -0.397848 13 154 76
-0.847101 0.207912 -0.489074 19 154 65
-0.791338 0.207912 -0.574941 26 154 54
-0.726905 0.207912 -0.654508 34 154 44
-0.654508 0.207912 -0.726905 44 154 34
-0.574941 0.207912 -0.791338 54 154 26
-0.489074 0.207912 -0.847101 65 154 19
-0.397848 0.207912 -0.893582 76 154 13
-0.302264 0.207912 -0.930274 88 154 8
-0.203368 0.207912 -0.956773 101 154 5
-0.102244 0.207912 -0.972789 114 154 3
-0.000000 0.207912 -0.978148 127 154 2
0.102244 0.207912 -0.972789 140 154 3
0.203368 0.207912 -0.956773 153 154 5
0.302264 0.207912 -0.930274 166 154 8
0.397848 0.207912 -0.893582 178 154 13
0.489074 0.207912 -0.847101 189 154 19
0.574941 0.207912 -0.791338 200 154 26
0.654508 0.207912 -0.726905 210 154 34
0.726905 0.207912 -0.654508 220 154 44
0.791338 0.207912 -0.574941 228 154 54
0.847101 0.207912 -0.489074 235 154 65
0.893582 0.207912 -0.397848 241 154 76
0.930274 0.207912 -0.302264 246 154 88
0.956773 0.207912 -0.203368 249 154 101
0.972789 0.207912 -0.102244 251 154 114
0.994522 0.104528 0.000000 254 140 127
0.989074 0.104528 0.103956 253 140 140
0.972789 0.104528 0.206773 251 140 153
0.945847 0.104528 0.307324 248 140 166
0.908541 0.104528 0.404508 243 140 179
0.861281 0.104528 0.497261 237 140 190
0.804585 0.104528 0.584565 230 140 202
0.739074 0.104528 0.665465 221 140 212
0.665465 0.104528 0.739074 212 140 221
0.584565 0.104528 0.804585 202 140 230
0.497261 0.104528 0.861281 190 140 237
0.404508 0.104528 0.908541 179 140 243
0.307324 0.104528 0.945847 166 140 248
0.206773 0.104528 0.972789 153 140 251
0.103956 0.104528 0.989074 140 140 253
0.000000 0.104528 0.994522 127 140 254
-0.103956 0.104528 0.989074 114 140 253
-0.206773 0.104528 0.972789 101 140 251
-0.307324 0.104528 0.945847 88 140 248
-0.404508 0.104528 0.908541 75 140 243
-0.497261 0.104528 0.861281 64 140 237
-0.584565 0.104528 0.804585 52 140 230
-0.665465 0.104528 0.739074 42 140 221
-0.739074 0.104528 0.665465 33 140 212
-0.804585 0.104528 0.584565 24 140 202
-0.861281 0.104528 0.497261 17 140 190
-0.908541 0.104528 0.404508 11 140 179
-0.945847 0.104528 0.307324 6 140 166
-0.972789 0.104528 0.206773 3 140 153
-0.989074 0.104528 0.103956 1 140 140
-0.994522 0.104528 0.000000 0 140 127
-0.989074 0.104528 -0.103956 1 140 114
-0.972789 0.104528 -0.206773 3 140 101
-0.945847 0.104528 -0.307324 6 140 88
-0.908541 0.104528 -0.404508 11 140 75
-0.861281 0.104528 -0.497261 17 140 64
-0.804585 0.104528 -0.584565 24 140 52
-0.739074 0.104528 -0.665465 33 140 42
-0.665465 0.104528 -0.739074 42 140 33
-0.584565 0.104528 -0.804585 52 140 24
-0.497261 0.104528 -0.861281 64 140 17
-0.404508 0.104528 -0.908541 75 140 11
-0.307324 0.104528 -0.945847 88 140 6
-0.206773 0.104528 -0.972789 101 140 3
-0.103956 0.104528 -0.989074 114 140 1
-0.000000 0.104528 -0.994522 127 140 0
0.103956 0.104528 -0.989074 140 140 1
0.206773 0.104528 -0.972789 153 140 3
0.307324 0.104528 -0.945847 166 140 6
0.404508 0.104528 -0.908541 179 140 11
0.497261 0.104528 -0.861281 190 140 17
0.584565 0.104528 -0.804585 202 140 24
0.665465 0.104528 -0.739074 212 140 33
0.739074 0.104528 -0.665465 221 140 42
0.804585 0.104528 -0.584565 230 140 52
0.861281 0.104528 -0.497261 237 140 64
0.908541 0.104528 -0.404508 243 140 75
0.945847 0.104528 -0.307324 248 140 88
0.972789 0.104528 -0.206773 251 140 101
0.989074 0.104528 -0.103956 253 140 114
1.000000 0.000000 0.000000 255 127 127
0.994522 0.000000 0.104528 254 127 140
0.978148 0.000000 0.207912 252 127 154
0.951057 0.000000 0.309017 248 127 166
0.913545 0.000000 0.406737 243 127 179
0.866025 0.000000 0.500000 237 127 191
0.809017 0.000000 0.587785 230 127 202
0.743145 0.000000 0.669131 222 127 212
0.669131 0.000000 0.743145 212 127 222
0.587785 0.000000 0.809017 202 127 230
0.500000 0.000000 0.866025 191 127 237
0.406737 0.000000 0.913545 179 127 243
0.309017 0.000000 0.951057 166 127 248
0.207912 0.000000 0.978148 154 127 252
0.104528 0.000000 0.994522 140 127 254
0.000000 0.000000 1.000000 127 127 255
-0.104528 0.000000 0.994522 114 127 254
-0.207912 0.000000 0.978148 100 127 252
-0.309017 0.000000 0.951057 88 127 248
-0.406737 0.000000 0.913545 75 127 243
-0.500000 0.000000 0.866025 63 127 237
-0.587785 0.000000 0.809017 52 127 230
-0.669131 0.000000 0.743145 42 127 222
-0.743145 0.000000 0.669131 32 127 212
-0.809017 0.000000 0.587785 24 127 202
-0.866025 0.000000 0.500000 17 127 191
-0.913545 0.000000 0.406737 11 127 179
-0.951057 0.000000 0.309017 6 127 166
-0.978148 0.000000 0.207912 2 127 154
-0.994522 0.000000 0.104528 0 127 140
-1.000000 0.000000 0.000000 0 127 127
-0.994522 0.000000 -0.104528 0 127 114
-0.978148 0.000000 -0.207912 2 127 100
-0.951057 0.000000 -0.309017 6 127 88
-0.913545 0.000000 -0.406737 11 127 75
-0.866025 0.000000 -0.500000 17 127 63
-0.809017 0.000000 -0.587785 24 127 52
-0.743145 0.000000 -0.669131 32 127 42
-0.669131 0.000000 -0.743145 42 127 32
-0.587785 0.000000 -0.809017 52 127 24
-0.500000 0.000000 -0.866025 63 127 17
-0.406737 0.000000 -0.913545 75 127 11
-0.309017 0.000000 -0.951057 88 127 6
-0.207912 0.000000 -0.978148 100 127 2
-0.104528 0.000000 -0.994522 114 127 0
-0.000000 0.000000 -1.000000 127 127 0
0.104528 0.000000 -0.994522 140 127 0
0.207912 0.000000 -0.978148 154 127 2
0.309017 0.000000 -0.951057 166 127 6
0.406737 0.000000 -0.913545 179 127 11
0.500000 0.000000 -0.866025 191 127 17
0.587785 0.000000 -0.809017 202 127 24
0.669131 0.000000 -0.743145 212 127 32
0.743145 0.000000 -0.669131 222 127 42
0.809017 0.000000 -0.587785 230 127 52
0.866025 0.000000 -0.500000 237 127 63
0.913545 0.000000 -0.406737 243 127 75
0.951057 0.000000 -0.309017 248 127 88
0.978148 0.000000 -0.207912 252 127 100
0.994522 0.000000 -0.104528 254 127 114
0.994522 -0.104528 0.000000 254 114 127
0.989074 -0.104528 0.103956 253 114 140
0.972789 -0.104528 0.206773 251 114 153
0.945847 -0.104528 0.307324 248 114 166
0.908541 -0.104528 0.404508 243 114 179
0.861281 -0.104528 0.497261 237 114 190
0.804585 -0.104528 0.584565 230 114 202
0.739074 -0.104528 0.665465 221 114 212
0.665465 -0.104528 0.739074 212 114 221
0.584565 -0.104528 0.804585 202 114 230
0.497261 -0.104528 0.861281 190 114 237
0.404508 -0.104528 0.908541 179 114 243
0.307324 -0.104528 0.945847 166 114 248
0.206773 -0.104528 0.972789 153 114 251
0.103956 -0.104528 0.989074 140 114 253
0.000000 -0.104528 0.994522 127 114 254
-0.103956 -0.104528 0.989074 114 114 253
-0.206773 -0.104528 0.972789 101 114 251
-0.307324 -0.104528 0.945847 88 114 248
-0.404508 -0.104528 0.908541 75 114 243
-0.497261 -0.104528 0.861281 64 114 237
-0.584565 -0.104528 0.804585 52 114 230
-0.665465 -0.104528 0.739074 42 114 221
-0.739074 -0.104528 0.665465 33 114 212
-0.804585 -0.104528 0.584565 24 114 202
-0.861281 -0.104528 0.497261 17 114 190
-0.908541 -0.104528 0.404508 11 114 179
-0.945847 -0.104528 0.307324 6 114 166
-0.972789 -0.104528 0.206773 3 114 153
-0.989074 -0.104528 0.103956 1 114 140
-0.994522 -0.104528 0.000000 0 114 127
-0.989074 -0.104528 -0.103956 1 114 114
-0.972789 -0.104528 -0.206773 3 114 101
-0.945847 -0.104528 -0.307324 6 114 88
-0.908541 -0.104528 -0.404508 11 114 75
-0.861281 -0.104528 -0.497261 17 114 64
-0.804585 -0.104528 -0.584565 24 114 52
-0.739074 -0.104528 -0.665465 33 114 42
-0.665465 -0.104528 -0.739074 42 114 33
-0.584565 -0.104528 -0.804585 52 114 24
-0.497261 -0.104528 -0.861281 64 114 17
-0.404508 -0.104528 -0.908541 75 114 11
-0.307324 -0.104528 -0.945847 88 114 6
-0.206773 -0.104528 -0.972789 101 114 3
-0.103956 -0.104528 -0.989074 114 114 1
-0.000000 -0.104528 -0.994522 127 114 0
0.103956 -0.104528 -0.989074 140 114 1
0.206773 -0.104528 -0.972789 153 114 3
0.307324 -0.104528 -0.945847 166 114 6
0.404508 -0.104528 -0.908541 179 114 11
0.497261 -0.104528 -0.861281 190 114 17
0.584565 -0.104528 -0.804585 202 114 24
0.665465 -0.104528 -0.739074 212 114 33
0.739074 -0.104528 -0.665465 221 114 42
0.804585 -0.104528 -0.584565 230 114 52
0.861281 -0.104528 -0.497261 237 114 64
0.908541 -0.104528 -0.404508 243 114 75
0.945847 -0.104528 -0.307324 248 114 88
0.972789 -0.104528 -0.206773 251 114 101
0.989074 -0.104528 -0.103956 253 114 114
0.978148 -0.207912 0.000000 252 100 127
0.972789 -0.207912 0.102244 251 100 140
0.956773 -0.207912 0.203368 249 100 153
0.930274 -0.207912 0.302264 246 100 166
0.893582 -0.207912 0.397848 241 100 178
0.847101 -0.207912 0.489074 235 100 189
0.791338 -0.207912 0.574941 228 100 200
0.726905 -0.207912 0.654508 220 100 210
0.654508 -0.207912 0.726905 210 100 220
0.574941 -0.207912 0.791338 200 100 228
0.489074 -0.207912 0.847101 189 100 235
0.397848 -0.207912 0.893582 178 100 241
0.302264 -0.207912 0.930274 166 100 246
0.203368 -0.207912 0.956773 153 100 249
0.102244 -0.207912 0.972789 140 100 251
0.000000 -0.207912 0.978148 127 100 252
-0.102244 -0.207912 0.972789 114 100 251
-0.203368 -0.207912 0.956773 101 100 249
-0.302264 -0.207912 0.930274 88 100 246
-0.397848 -0.207912 0.893582 76 100 241
-0.489074 -0.207912 0.847101 65 100 235
-0.574941 -0.207912 0.791338 54 100 228
-0.654508 -0.207912 0.726905 44 100 220
-0.726905 -0.207912 0.654508 34 100 210
-0.791338 -0.207912 0.574941 26 100 200
-0.847101 -0.207912 0.489074 19 100 189
-0.893582 -0.207912 0.397848 13 100 178
-0.930274 -0.207912 0.302264 8 100 166
-0.956773 -0.207912 0.203368 5 100 153
-0.972789 -0.207912 0.102244 3 100 140
-0.978148 -0.207912 0.000000 2 100 127
-0.972789 -0.207912 -0.102244 3 100 114
-0.956773 -0.207912 -0.203368 5 100 101
-0.930274 -0.207912 -0.302264 8 100 88
-0.893582 -0.207912 -0.397848 13 100 76
-0.847101 -0.207912 -0.489074 19 100 65
-0.791338 -0.207912 -0.574941 26 100 54
-0.726905 -0.207912 -0.654508 34 100 44
-0.654508 -0.207912 -0.726905 44 100 34
-0.574941 -0.207912 -0.791338 54 100 26
-0.489074 -0.207912 -0.847101 65 100 19
-0.397848 -0.207912 -0.893582 76 100 13
-0.302264 -0.207912 -0.930274 88 100 8
-0.203368 -0.207912 -0.956773 101 100 5
-0.102244 -0.207912 -0.972789 114 100 3
-0.000000 -0.207912 -0.978148 127 100 2
0.102244 -0.207912 -0.972789 140 100 3
0.203368 -0.207912 -0.956773 153 100 5
0.302264 -0.207912 -0.930274 166 100 8
0.397848 -0.207912 -0.893582 178 100 13
0.489074 -0.207912 -0.847101 189 100 19
0.574941 -0.207912 -0.791338 200 100 26
0.654508 -0.207912 -0.726905 210 100 34
0.726905 -0.207912 -0.654508 220 100 44
0.791338 -0.207912 -0.574941 228 100 54
0.847101 -0.207912 -0.489074 235 100 65
0.893582 -0.207912 -0.397848 241 100 76
0.930274 -0.207912 -0.302264 246 100 88
0.956773 -0.207912 -0.203368 249 100 101
0.972789 -0.207912 -0.102244 251 100 114
0.951057 -0.309017 0.000000 248 88 127
0.945847 -0.309017 0.099412 248 88 140
0.930274 -0.309017 0.197736 246 88 152
0.904508 -0.309017 0.293893 242 88 164
0.868833 -0.309017 0.386830 238 88 176
0.823639 -0.309017 0.475528 232 88 188
0.769421 -0.309017 0.559017 225 88 198
0.706773 -0.309017 0.636381 217 88 208
0.636381 -0.309017 0.706773 208 88 217
0.559017 -0.309017 0.769421 198 88 225
0.475528 -0.309017 0.823639 188 88 232
0.386830 -0.309017 0.868833 176 88 238
0.293893 -0.309017 0.904508 164 88 242
0.197736 -0.309017 0.930274 152 88 246
0.099412 -0.309017 0.945847 140 88 248
0.000000 -0.309017 0.951057 127 88 248
-0.099412 -0.309017 0.945847 114 88 248
-0.197736 -0.309017 0.930274 102 88 246
-0.293893 -0.309017 0.904508 90 88 242
-0.386830 -0.309017 0.868833 78 88 238
-0.475528 -0.309017 0.823639 66 88 232
-0.559017 -0.309017 0.769421 56 88 225
-0.636381 -0.309017 0.706773 46 88 217
-0.706773 -0.309017 0.636381 37 88 208
-0.769421 -0.309017 0.559017 29 88 198
-0.823639 -0.309017 0.475528 22 88 188
-0.868833 -0.309017 0.386830 16 88 176
-0.904508 -0.309017 0.293893 12 88 164
-0.930274 -0.309017 0.197736 8 88 152
-0.945847 -0.309017 0.099412 6 88 140
-0.951057 -0.309017 0.000000 6 88 127
-0.945847 -0.309017 -0.099412 6 88 114
-0.930274 -0.309017 -0.197736 8 88 102
-0.904508 -0.309017 -0.293893 12 88 90
-0.868833 -0.309017 -0.386830 16 88 78
-0.823639 -0.309017 -0.475528 22 88 66
-0.769421 -0.309017 -0.559017 29 88 56
-0.706773 -0.309017 -0.636381 37 88 46
-0.636381 -0.309017 -0.706773 46 88 37
-0.559017 -0.309017 -0.769421 56 88 29
-0.475528 -0.309017 -0.823639 66 88 22
-0.386830 -0.309017 -0.868833 78 88 16
-0.293893 -0.309017 -0.904508 90 88 12
-0.197736 -0.309017 -0.930274 102 88 8
-0.099412 -0.309017 -0.945847 114 88 6
-0.000000 -0.309017 -0.951057 127 88 6
0.099412 -0.309017 -0.945847 140 88 6
0.197736 -0.309017 -0.930274 152 88 8
0.293893 -0.309017 -0.904508 164 88 12
0.386830 -0.309017 -0.868833 176 88 16
0.475528 -0.309017 -0.823639 188 88 22
0.559017 -0.309017 -0.769421 198 88 29
0.636381 -0.309017 -0.706773 208 88 37
0.706773 -0.309017 -0.636381 217 88 46
0.769421 -0.309017 -0.559017 225 88 56
0.823639 -0.309017 -0.475528 232 88 66
0.868833 -0.309017 -0.386830 238 88 78
0.904508 -0.309017 -0.293893 242 88 90
0.930274 -0.309017 -0.197736 246 88 102
0.945847 -0.309017 -0.099412 248 88 114
0.913545 -0.406737 0.000000 243 75 127
0.908541 -0.406737 0.095492 243 75 139
0.893582 -0.406737 0.189937 241 75 151
0.868833 -0.406737 0.282301 238 75 163
0.834565 -0.406737 0.371572 233 75 174
0.791154 -0.406737 0.456773 228 75 185
0.739074 -0.406737 0.536969 221 75 195
0.678897 -0.406737 0.611281 214 75 205
0.611281 -0.406737 0.678897 205 75 214
0.536969 -0.406737 0.739074 195 75 221
0.456773 -0.406737 0.791154 185 75 228
0.371572 -0.406737 0.834565 174 75 233
0.282301 -0.406737 0.868833 163 75 238
0.189937 -0.406737 0.893582 151 75 241
0.095492 -0.406737 0.908541 139 75 243
0.000000 -0.406737 0.913545 127 75 243
-0.095492 -0.406737 0.908541 115 75 243
-0.189937 -0.406737 0.893582 103 75 241
-0.282301 -0.406737 0.868833 91 75 238
-0.371572 -0.406737 0.834565 80 75 233
-0.456773 -0.406737 0.791154 69 75 228
-0.536969 -0.406737 0.739074 59 75 221
-0.611281 -0.406737 0.678897 49 75 214
-0.678897 -0.406737 0.611281 40 75 205
-0.739074 -0.406737 0.536969 33 75 195
-0.791154 -0.406737 0.456773 26 75 185
-0.834565 -0.406737 0.371572 21 75 174
-0.868833 -0.406737 0.282301 16 75 163
-0.893582 -0.406737 0.189937 13 75 151
-0.908541 -0.406737 0.095492 11 75 139
-0.913545 -0.406737 0.000000 11 75 127
-0.908541 -0.406737 -0.095492 11 75 115
-0.893582 -0.406737 -0.189937 13 75 103
-0.868833 -0.406737 -0.282301 16 75 91
-0.834565 -0.406737 -0.371572 21 75 80
-0.791154 -0.406737 -0.456773 26 75 69
-0.739074 -0.406737 -0.536969 33 75 59
-0.678897 -0.406737 -0.611281 40 75 49
-0.611281 -0.406737 -0.678897 49 75 40
-0.536969 -0.406737 -0.739074 59 75 33
-0.456773 -0.406737 -0.791154 69 75 26
-0.371572 -0.406737 -0.834565 80 75 21
-0.282301 -0.406737 -0.868833 91 75 16
-0.189937 -0.406737 -0.893582 103 75 13
-0.095492 -0.406737 -0.908541 115 75 11
-0.000000 -0.406737 -0.913545 127 75 11
0.095492 -0.406737 -0.908541 139 75 11
0.189937 -0.406737 -0.893582 151 75 13
0.282301 -0.406737 -0.868833 163 75 16
0.371572 -0.406737 -0.834565 174 75 21
0.456773 -0.406737 -0.791154 185 75 26
0.536969 -0.406737 -0.739074 195 75 33
0.611281 -0.406737 -0.678897 205 75 40
0.678897 -0.406737 -0.611281 214 75 49
0.739074 -0.406737 -0.536969 221 75 59
0.791154 -0.406737 -0.456773 228 75 69
0.834565 -0.406737 -0.371572 233 75 80
0.868833 -0.406737 -0.282301 238 75 91
0.893582 -0.406737 -0.189937 241 75 103
0.908541 -0.406737 -0.095492 243 75 115
0.866025 -0.500000 0.000000 237 63 127
0.861281 -0.500000 0.090524 237 63 139
0.847101 -0.500000 0.180057 235 63 150
0.823639 -0.500000 0.267617 232 63 161
0.791154 -0.500000 0.352244 228 63 172
0.750000 -0.500000 0.433013 223 63 182
0.700629 -0.500000 0.509037 216 63 192
0.643582 -0.500000 0.579484 209 63 201
0.579484 -0.500000 0.643582 201 63 209
0.509037 -0.500000 0.700629 192 63 216
0.433013 -0.500000 0.750000 182 63 223
0.352244 -0.500000 0.791154 172 63 228
0.267617 -0.500000 0.823639 161 63 232
0.180057 -0.500000 0.847101 150 63 235
0.090524 -0.500000 0.861281 139 63 237
0.000000 -0.500000 0.866025 127 63 237
-0.090524 -0.500000 0.861281 115 63 237
-0.180057 -0.500000 0.847101 104 63 235
-0.267617 -0.500000 0.823639 93 63 232
-0.352244 -0.500000 0.791154 82 63 228
-0.433013 -0.500000 0.750000 72 63 223
-0.509037 -0.500000 0.700629 62 63 216
-0.579484 -0.500000 0.643582 53 63 209
-0.643582 -0.500000 0.579484 45 63 201
-0.700629 -0.500000 0.509037 38 63 192
-0.750000 -0.500000 0.433013 31 63 182
-0.791154 -0.500000 0.352244 26 63 172
-0.823639 -0.500000 0.267617 22 63 161
-0.847101 -0.500000 0.180057 19 63 150
-0.861281 -0.500000 0.090524 17 63 139
-0.866025 -0.500000 0.000000 17 63 127
-0.861281 -0.500000 -0.090524 17 63 115
-0.847101 -0.500000 -0.180057 19 63 104
-0.823639 -0.500000 -0.267617 22 63 93
-0.791154 -0.500000 -0.352244 26 63 82
-0.750000 -0.500000 -0.433013 31 63 72
-0.700629 -0.500000 -0.509037 38 63 62
-0.643582 -0.500000 -0.579484 45 63 53
-0.579484 -0.500000 -0.643582 53 63 45
-0.509037 -0.500000 -0.700629 62 63 38
-0.433013 -0.500000 -0.750000 72 63 31
-0.352244 -0.500000 -0.791154 82 63 26
-0.267617 -0.500000 -0.823639 93 63 22
-0.180057 -0.500000 -0.847101 104 63 19
-0.090524 -0.500000 -0.861281 115 63 17
-0.000000 -0.500000 -0.866025 127 63 17
0.090524 -0.500000 -0.861281 139 63 17
0.180057 -0.500000 -0.847101 150 63 19
0.267617 -0.500000 -0.823639 161 63 22
0.352244 -0.500000 -0.791154 172 63 26
0.433013 -0.500000 -0.750000 182 63 31
0.509037 -0.500000 -0.700629 192 63 38
0.579484 -0.500000 -0.643582 201 63 45
0.643582 -0.500000 -0.579484 209 63 53
0.700629 -0.500000 -0.509037 216 63 62
0.750000 -0.500000 -0.433013 223 63 72
0.791154 -0.500000 -0.352244 228 63 82
0.823639 -0.500000 -0.267617 232 63 93
0.847101 -0.500000 -0.180057 235 63 104
0.861281 -0.500000 -0.090524 237 63 115
0.809017 -0.587785 0.000000 230 52 127
0.804585 -0.587785 0.084565 230 52 138
0.791338 -0.587785 0.168204 228 52 148
0.769421 -0.587785 0.250000 225 52 159
0.739074 -0.587785 0.329057 221 52 169
0.700629 -0.587785 0.404508 216 52 179
0.654508 -0.587785 0.475528 210 52 188
0.601217 -0.587785 0.541338 204 52 196
0.541338 -0.587785 0.601217 196 52 204
0.475528 -0.587785 0.654508 188 52 210
0.404508 -0.587785 0.700629 179 52 216
0.329057 -0.587785 0.739074 169 52 221
0.250000 -0.587785 0.769421 159 52 225
0.168204 -0.587785 0.791338 148 52 228
0.084565 -0.587785 0.804585 138 52 230
0.000000 -0.587785 0.809017 127 52 230
-0.084565 -0.587785 0.804585 116 52 230
-0.168204 -0.587785 0.791338 106 52 228
-0.250000 -0.587785 0.769421 95 52 225
-0.329057 -0.587785 0.739074 85 52 221
-0.404508 -0.587785 0.700629 75 52 216
-0.475528 -0.587785 0.654508 66 52 210
-0.541338 -0.587785 0.601217 58 52 204
-0.601217 -0.587785 0.541338 50 52 196
-0.654508 -0.587785 0.475528 44 52 188
-0.700629 -0.587785 0.404508 38 52 179
-0.739074 -0.587785 0.329057 33 52 169
-0.769421 -0.587785 0.250000 29 52 159
-0.791338 -0.587785 0.168204 26 52 148
-0.804585 -0.587785 0.084565 24 52 138
-0.809017 -0.587785 0.000000 24 52 127
-0.804585 -0.587785 -0.084565 24 52 116
-0.791338 -0.587785 -0.168204 26 52 106
-0.769421 -0.587785 -0.250000 29 52 95
-0.739074 -0.587785 -0.329057 33 52 85
-0.700629 -0.587785 -0.404508 38 52 75
-0.654508 -0.587785 -0.475528 44 52 66
-0.601217 -0.587785 -0.541338 50 52 58
-0.541338 -0.587785 -0.601217 58 52 50
-0.475528 -0.587785 -0.654508 66 52 44
-0.404508 -0.587785 -0.700629 75 52 38
-0.329057 -0.587785 -0.739074 85 52 33
-0.250000 -0.587785 -0.769421 95 52 29
-0.168204 -0.587785 -0.791338 106 52 26
-0.084565 -0.587785 -0.804585 116 52 24
-0.000000 -0.587785 -0.809017 127 52 24
0.084565 -0.587785 -0.804585 138 52 24
0.168204 -0.587785 -0.791338 148 52 26
0.250000 -0.587785 -0.769421 159 52 29
0.329057 -0.587785 -0.739074 169 52 33
0.404508 -0.587785 -0.700629 179 52 38
0.475528 -0.587785 -0.654508 188 52 44
0.541338 -0.587785 -0.601217 196 52 50
0.601217 -0.587785 -0.541338 204 52 58
0.654508 -0.587785 -0.475528 210 52 66
0.700629 -0.587785 -0.404508 216 52 75
0.739074 -0.587785 -0.329057 221 52 85
0.769421 -0.587785 -0.250000 225 52 95
0.791338 -0.587785 -0.168204 228 52 106
0.804585 -0.587785 -0.084565 230 52 116
0.743145 -0.669131 0.000000 222 42 127
0.739074 -0.669131 0.077680 221 42 137
0.726905 -0.669131 0.154508 220 42 147
0.706773 -0.669131 0.229644 217 42 156
0.678897 -0.669131 0.302264 214 42 166
0.643582 -0.669131 0.371572 209 42 174
0.601217 -0.669131 0.436810 204 42 183
0.552264 -0.669131 0.497261 197 42 190
0.497261 -0.669131 0.552264 190 42 197
0.436810 -0.669131 0.601217 183 42 204
0.371572 -0.669131 0.643582 174 42 209
0.302264 -0.669131 0.678897 166 42 214
0.229644 -0.669131 0.706773 156 42 217
0.154508 -0.669131 0.726905 147 42 220
0.077680 -0.669131 0.739074 137 42 221
0.000000 -0.669131 0.743145 127 42 222
-0.077680 -0.669131 0.739074 117 42 221
-0.154508 -0.669131 0.726905 107 42 220
-0.229644 -0.669131 0.706773 98 42 217
-0.302264 -0.669131 0.678897 88 42 214
-0.371572 -0.669131 0.643582 80 42 209
-0.436810 -0.669131 0.601217 71 42 204
-0.497261 -0.669131 0.552264 64 42 197
-0.552264 -0.669131 0.497261 57 42 190
-0.601217 -0.669131 0.436810 50 42 183
-0.643582 -0.669131 0.371572 45 42 174
-0.678897 -0.669131 0.302264 40 42 166
-0.706773 -0.669131 0.229644 37 42 156
-0.726905 -0.669131 0.154508 34 42 147
-0.739074 -0.669131 0.077680 33 42 137
-0.743145 -0.669131 0.000000 32 42 127
-0.739074 -0.669131 -0.077680 33 42 117
-0.726905 -0.669131 -0.154508 34 42 107
-0.706773 -0.669131 -0.229644 37 42 98
-0.678897 -0.669131 -0.302264 40 42 88
-0.643582 -0.669131 -0.371572 45 42 80
-0.601217 -0.669131 -0.436810 50 42 71
-0.552264 -0.669131 -0.497261 57 42 64
-0.497261 -0.669131 -0.552264 64 42 57
-0.436810 -0.669131 -0.601217 71 42 50
-0.371572 -0.669131 -0.643582 80 42 45
-0.302264 -0.669131 -0.678897 88 42 40
-0.229644 -0.669131 -0.706773 98 42 37
-0.154508 -0.669131 -0.726905 107 42 34
-0.077680 -0.669131 -0.739074 117 42 33
-0.000000 -0.669131 -0.743145 127 42 32
0.077680 -0.669131 -0.739074 137 42 33
0.154508 -0.669131 -0.726905 147 42 34
0.229644 -0.669131 -0.706773 156 42 37
0.302264 -0.669131 -0.678897 166 42 40
0.371572 -0.669131 -0.643582 174 42 45
0.436810 -0.669131 -0.601217 183 42 50
0.497261 -0.669131 -0.552264 190 42 57
0.552264 -0.669131 -0.497261 197 42 64
0.601217 -0.669131 -0.436810 204 42 71
0.643582 -0.669131 -0.371572 209 42 80
0.678897 -0.669131 -0.302264 214 42 88
0.706773 -0.669131 -0.229644 217 42 98
0.726905 -0.669131 -0.154508 220 42 107
0.739074 -0.669131 -0.077680 221 42 117
0.669131 -0.743145 0.000000 212 32 127
0.665465 -0.743145 0.069943 212 32 136
0.654508 -0.743145 0.139120 210 32 145
0.636381 -0.743145 0.206773 208 32 153
0.611281 -0.743145 0.272160 205 32 162
0.579484 -0.743145 0.334565 201 32 170
0.541338 -0.743145 0.393305 196 32 177
0.497261 -0.743145 0.447736 190 32 184
0.447736 -0.743145 0.497261 184 32 190
0.393305 -0.743145 0.541338 177 32 196
0.334565 -0.743145 0.579484 170 32 201
0.272160 -0.743145 0.611281 162 32 205
0.206773 -0.743145 0.636381 153 32 208
0.139120 -0.743145 0.654508 145 32 210
0.069943 -0.743145 0.665465 136 32 212
0.000000 -0.743145 0.669131 127 32 212
-0.069943 -0.743145 0.665465 118 32 212
-0.139120 -0.743145 0.654508 109 32 210
-0.206773 -0.743145 0.636381 101 32 208
-0.272160 -0.743145 0.611281 92 32 205
-0.334565 -0.743145 0.579484 84 32 201
-0.393305 -0.743145 0.541338 77 32 196
-0.447736 -0.743145 0.497261 70 32 190
-0.497261 -0.743145 0.447736 64 32 184
-0.541338 -0.743145 0.393305 58 32 177
-0.579484 -0.743145 0.334565 53 32 170
-0.611281 -0.743145 0.272160 49 32 162
-0.636381 -0.743145 0.206773 46 32 153
-0.654508 -0.743145 0.139120 44 32 145
-0.665465 -0.743145 0.069943 42 32 136
-0.669131 -0.743145 0.000000 42 32 127
-0.665465 -0.743145 -0.069943 42 32 118
-0.654508 -0.743145 -0.139120 44 32 109
-0.636381 -0.743145 -0.206773 46 32 101
-0.611281 -0.743145 -0.272160 49 32 92
-0.579484 -0.743145 -0.334565 53 32 84
-0.541338 -0.743145 -0.393305 58 32 77
-0.497261 -0.743145 -0.447736 64 32 70
-0.447736 -0.743145 -0.497261 70 32 64
-0.393305 -0.743145 -0.541338 77 32 58
-0.334565 -0.743145 -0.579484 84 32 53
-0.272160 -0.743145 -0.611281 92 32 49
-0.206773 -0.743145 -0.636381 101 32 46
-0.139120 -0.743145 -0.654508 109 32 44
-0.069943 -0.743145 -0.665465 118 32 42
-0.000000 -0.743145 -0.669131 127 32 42
0.069943 -0.743145 -0.665465 136 32 42
0.139120 -0.743145 -0.654508 145 32 44
0.206773 -0.743145 -0.636381 153 32 46
0.272160 -0.743145 -0.611281 162 32 49
0.334565 -0.743145 -0.579484 170 32 53
0.393305 -0.743145 -0.541338 177 32 58
0.447736 -0.743145 -0.497261 184 32 64
0.497261 -0.743145 -0.447736 190 32 70
0.541338 -0.743145 -0.393305 196 32 77
0.579484 -0.743145 -0.334565 201 32 84
0.611281 -0.743145 -0.272160 205 32 92
0.636381 -0.743145 -0.206773 208 32 101
0.654508 -0.743145 -0.139120 210 32 109
0.665465 -0.743145 -0.069943 212 32 118
0.587785 -0.809017 0.000000 202 24 127
0.584565 -0.809017 0.061440 202 24 135
0.574941 -0.809017 0.122207 200 24 143
0.559017 -0.809017 0.181636 198 24 150
0.536969 -0.809017 0.239074 195 24 157
0.509037 -0.809017 0.293893 192 24 164
0.475528 -0.809017 0.345492 188 24 171
0.436810 -0.809017 0.393305 183 24 177
0.393305 -0.809017 0.436810 177 24 183
0.345492 -0.809017 0.475528 171 24 188
0.293893 -0.809017 0.509037 164 24 192
0.239074 -0.809017 0.536969 157 24 195
0.181636 -0.809017 0.559017 150 24 198
0.122207 -0.809017 0.574941 143 24 200
0.061440 -0.809017 0.584565 135 24 202
0.000000 -0.809017 0.587785 127 24 202
-0.061440 -0.809017 0.584565 119 24 202
-0.122207 -0.809017 0.574941 111 24 200
-0.181636 -0.809017 0.559017 104 24 198
-0.239074 -0.809017 0.536969 97 24 195
-0.293893 -0.809017 0.509037 90 24 192
-0.345492 -0.809017 0.475528 83 24 188
-0.393305 -0.809017 0.436810 77 24 183
-0.436810 -0.809017 0.393305 71 24 177
-0.475528 -0.809017 0.345492 66 24 171
-0.509037 -0.809017 0.293893 62 24 164
-0.536969 -0.809017 0.239074 59 24 157
-0.559017 -0.809017 0.181636 56 24 150
-0.574941 -0.809017 0.122207 54 24 143
-0.584565 -0.809017 0.061440 52 24 135
-0.587785 -0.809017 0.000000 52 24 127
-0.584565 -0.809017 -0.061440 52 24 119
-0.574941 -0.809017 -0.122207 54 24 111
-0.559017 -0.809017 -0.181636 56 24 104
-0.536969 -0.809017 -0.239074 59 24 97
-0.509037 -0.809017 -0.293893 62 24 90
-0.475528 -0.809017 -0.345492 66 24 83
-0.436810 -0.809017 -0.393305 71 24 77
-0.393305 -0.809017 -0.436810 77 24 71
-0.345492 -0.809017 -0.475528 83 24 66
-0.293893 -0.809017 -0.509037 90 24 62
-0.239074 -0.809017 -0.536969 97 24 59
-0.181636 -0.809017 -0.559017 104 24 56
-0.122207 -0.809017 -0.574941 111 24 54
-0.061440 -0.809017 -0.584565 119 24 52
-0.000000 -0.809017 -0.587785 127 24 52
0.061440 -0.809017 -0.584565 135 24 52
0.122207 -0.809017 -0.574941 143 24 54
0.181636 -0.809017 -0.559017 150 24 56
0.239074 -0.809017 -0.536969 157 24 59
0.293893 -0.809017 -0.509037 164 24 62
0.345492 -0.809017 -0.475528 171 24 66
0.393305 -0.809017 -0.436810 177 24 71
0.436810 -0.809017 -0.393305 183 24 77
0.475528 -0.809017 -0.345492 188 24 83
0.509037 -0.809017 -0.293893 192 24 90
0.536969 -0.809017 -0.239074 195 24 97
0.559017 -0.809017 -0.181636 198 24 104
0.574941 -0.809017 -0.122207 200 24 111
0.584565 -0.809017 -0.061440 202 24 119
0.500000 -0.866025 0.000000 191 17 127
0.497261 -0.866025 0.052264 190 17 134
0.489074 -0.866025 0.103956 189 17 140
0.475528 -0.866025 0.154508 188 17 147
0.456773 -0.866025 0.203368 185 17 153
0.433013 -0.866025 0.250000 182 17 159
0.404508 -0.866025 0.293893 179 17 164
0.371572 -0.866025 0.334565 174 17 170
0.334565 -0.866025 0.371572 170 17 174
0.293893 -0.866025 0.404508 164 17 179
0.250000 -0.866025 0.433013 159 17 182
0.203368 -0.866025 0.456773 153 17 185
0.154508 -0.866025 0.475528 147 17 188
0.103956 -0.866025 0.489074 140 17 189
0.052264 -0.866025 0.497261 134 17 190
0.000000 -0.866025 0.500000 127 17 191
-0.052264 -0.866025 0.497261 120 17 190
-0.103956 -0.866025 0.489074 114 17 189
-0.154508 -0.866025 0.475528 107 17 188
-0.203368 -0.866025 0.456773 101 17 185
-0.250000 -0.866025 0.433013 95 17 182
-0.293893 -0.866025 0.404508 90 17 179
-0.334565 -0.866025 0.371572 84 17 174
-0.371572 -0.866025 0.334565 80 17 170
-0.404508 -0.866025 0.293893 75 17 164
-0.433013 -0.866025 0.250000 72 17 159
-0.456773 -0.866025 0.203368 69 17 153
-0.475528 -0.866025 0.154508 66 17 147
-0.489074 -0.866025 0.103956 65 17 140
-0.497261 -0.866025 0.052264 64 17 134
-0.500000 -0.866025 0.000000 63 17 127
-0.497261 -0.866025 -0.052264 64 17 120
-0.489074 -0.866025 -0.103956 65 17 114
-0.475528 -0.866025 -0.154508 66 17 107
-0.456773 -0.866025 -0.203368 69 17 101
-0.433013 -0.866025 -0.250000 72 17 95
-0.404508 -0.866025 -0.293893 75 17 90
-0.371572 -0.866025 -0.334565 80 17 84
-0.334565 -0.866025 -0.371572 84 17 80
-0.293893 -0.866025 -0.404508 90 17 75
-0.250000 -0.866025 -0.433013 95 17 72
-0.203368 -0.866025 -0.456773 101 17 69
-0.154508 -0.866025 -0.475528 107 17 66
-0.103956 -0.866025 -0.489074 114 17 65
-0.052264 -0.866025 -0.497261 120 17 64
-0.000000 -0.866025 -0.500000 127 17 63
0.052264 -0.866025 -0.497261 134 17 64
0.103956 -0.866025 -0.489074 140 17 65
0.154508 -0.866025 -0.475528 147 17 66
0.203368 -0.866025 -0.456773 153 17 69
0.250000 -0.866025 -0.433013 159 17 72
0.293893 -0.866025 -0.404508 164 17 75
0.334565 -0.866025 -0.371572 170 17 80
0.371572 -0.866025 -0.334565 174 17 84
0.404508 -0.866025 -0.293893 179 17 90
0.433013 -0.866025 -0.250000 182 17 95
0.456773 -0.866025 -0.203368 185 17 101
0.475528 -0.866025 -0.154508 188 17 107
0.489074 -0.866025 -0.103956 189 17 114
0.497261 -0.866025 -0.052264 190 17 120
0.406737 -0.913545 0.000000 179 11 127
0.404508 -0.913545 0.042516 179 11 132
0.397848 -0.913545 0.084565 178 11 138
0.386830 -0.913545 0.125689 176 11 143
0.371572 -0.913545 0.165435 174 11 148
0.352244 -0.913545 0.203368 172 11 153
0.329057 -0.913545 0.239074 169 11 157
0.302264 -0.913545 0.272160 166 11 162
0.272160 -0.913545 0.302264 162 11 166
0.239074 -0.913545 0.329057 157 11 169
0.203368 -0.913545 0.352244 153 11 172
0.165435 -0.913545 0.371572 148 11 174
0.125689 -0.913545 0.386830 143 11 176
0.084565 -0.913545 0.397848 138 11 178
0.042516 -0.913545 0.404508 132 11 179
0.000000 -0.913545 0.406737 127 11 179
-0.042516 -0.913545 0.404508 122 11 179
-0.084565 -0.913545 0.397848 116 11 178
-0.125689 -0.913545 0.386830 111 11 176
-0.165435 -0.913545 0.371572 106 11 174
-0.203368 -0.913545 0.352244 101 11 172
-0.239074 -0.913545 0.329057 97 11 169
-0.272160 -0.913545 0.302264 92 11 166
-0.302264 -0.913545 0.272160 88 11 162
-0.329057 -0.913545 0.239074 85 11 157
-0.352244 -0.913545 0.203368 82 11 153
-0.371572 -0.913545 0.165435 80 11 148
-0.386830 -0.913545 0.125689 78 11 143
-0.397848 -0.913545 0.084565 76 11 138
-0.404508 -0.913545 0.042516 75 11 132
-0.406737 -0.913545 0.000000 75 11 127
-0.404508 -0.913545 -0.042516 75 11 122
-0.397848 -0.913545 -0.084565 76 11 116
-0.386830 -0.913545 -0.125689 78 11 111
-0.371572 -0.913545 -0.165435 80 11 106
-0.352244 -0.913545 -0.203368 82 11 101
-0.329057 -0.913545 -0.239074 85 11 97
-0.302264 -0.913545 -0.272160 88 11 92
-0.272160 -0.913545 -0.302264 92 11 88
-0.239074 -0.913545 -0.329057 97 11 85
-0.203368 -0.913545 -0.352244 101 11 82
-0.165435 -0.913545 -0.371572 106 11 80
-0.125689 -0.913545 -0.386830 111 11 78
-0.084565 -0.913545 -0.397848 116 11 76
-0.042516 -0.913545 -0.404508 122 11 75
-0.000000 -0.913545 -0.406737 127 11 75
0.042516 -0.913545 -0.404508 132 11 75
0.084565 -0.913545 -0.397848 138 11 76
0.125689 -0.913545 -0.386830 143 11 78
0.165435 -0.913545 -0.371572 148 11 80
0.203368 -0.913545 -0.352244 153 11 82
0.239074 -0.913545 -0.329057 157 11 85
0.272160 -0.913545 -0.302264 162 11 88
0.302264 -0.913545 -0.272160 166 11 92
0.329057 -0.913545 -0.239074 169 11 97
0.352244 -0.913545 -0.203368 172 11 101
0.371572 -0.913545 -0.165435 174 11 106
0.386830 -0.913545 -0.125689 176 11 111
0.397848 -0.913545 -0.084565 178 11 116
0.404508 -0.913545 -0.042516 179 11 122
0.309017 -0.951057 0.000000 166 6 127
0.307324 -0.951057 0.032301 166 6 131
0.302264 -0.951057 0.064248 166 6 135
0.293893 -0.951057 0.095492 164 6 139
0.282301 -0.951057 0.125689 163 6 143
0.267617 -0.951057 0.154508 161 6 147
0.250000 -0.951057 0.181636 159 6 150
0.229644 -0.951057 0.206773 156 6 153
0.206773 -0.951057 0.229644 153 6 156
0.181636 -0.951057 0.250000 150 6 159
0.154508 -0.951057 0.267617 147 6 161
0.125689 -0.951057 0.282301 143 6 163
0.095492 -0.951057 0.293893 139 6 164
0.064248 -0.951057 0.302264 135 6 166
0.032301 -0.951057 0.307324 131 6 166
0.000000 -0.951057 0.309017 127 6 166
-0.032301 -0.951057 0.307324 123 6 166
-0.064248 -0.951057 0.302264 119 6 166
-0.095492 -0.951057 0.293893 115 6 164
-0.125689 -0.951057 0.282301 111 6 163
-0.154508 -0.951057 0.267617 107 6 161
-0.181636 -0.951057 0.250000 104 6 159
-0.206773 -0.951057 0.229644 101 6 156
-0.229644 -0.951057 0.206773 98 6 153
-0.250000 -0.951057 0.181636 95 6 150
-0.267617 -0.951057 0.154508 93 6 147
-0.282301 -0.951057 0.125689 91 6 143
-0.293893 -0.951057 0.095492 90 6 139
-0.302264 -0.951057 0.064248 88 6 135
-0.307324 -0.951057 0.032301 88 6 131
-0.309017 -0.951057 0.000000 88 6 127
-0.307324 -0.951057 -0.032301 88 6 123
-0.302264 -0.951057 -0.064248 88 6 119
-0.293893 -0.951057 -0.095492 90 6 115
-0.282301 -0.951057 -0.125689 91 6 111
-0.267617 -0.951057 -0.154508 93 6 107
-0.250000 -0.951057 -0.181636 95 6 104
-0.229644 -0.951057 -0.206773 98 6 101
-0.206773 -0.951057 -0.229644 101 6 98
-0.181636 -0.951057 -0.250000 104 6 95
-0.154508 -0.951057 -0.267617 107 6 93
-0.125689 -0.951057 -0.282301 111 6 91
-0.095492 -0.951057 -0.293893 115 6 90
-0.064248 -0.951057 -0.302264 119 6 88
-0.032301 -0.951057 -0.307324 123 6 88
-0.000000 -0.951057 -0.309017 127 6 88
0.032301 -0.951057 -0.307324 131 6 88
0.064248 -0.951057 -0.302264 135 6 88
0.095492 -0.951057 -0.293893 139 6 90
0.125689 -0.951057 -0.282301 143 6 91
0.154508 -0.951057 -0.267617 147 6 93
0.181636 -0.951057 -0.250000 150 6 95
0.206773 -0.951057 -0.229644 153 6 98
0.229644 -0.951057 -0.206773 156 6 101
0.250000 -0.951057 -0.181636 159 6 104
0.267617 -0.951057 -0.154508 161 6 107
0.282301 -0.951057 -0.125689 163 6 111
0.293893 -0.951057 -0.095492 164 6 115
0.302264 -0.951057 -0.064248 166 6 119
0.307324 -0.951057 -0.032301 166 6 123
0.207912 -0.978148 0.000000 154 2 127
0.206773 -0.978148 0.021733 153 2 130
0.203368 -0.978148 0.043227 153 2 133
0.197736 -0.978148 0.064248 152 2 135
0.189937 -0.978148 0.084565 151 2 138
0.180057 -0.978148 0.103956 150 2 140
0.168204 -0.978148 0.122207 148 2 143
0.154508 -0.978148 0.139120 147 2 145
0.139120 -0.978148 0.154508 145 2 147
0.122207 -0.978148 0.168204 143 2 148
0.103956 -0.978148 0.180057 140 2 150
0.084565 -0.978148 0.189937 138 2 151
0.064248 -0.978148 0.197736 135 2 152
0.043227 -0.978148 0.203368 133 2 153
0.021733 -0.978148 0.206773 130 2 153
0.000000 -0.978148 0.207912 127 2 154
-0.021733 -0.978148 0.206773 124 2 153
-0.043227 -0.978148 0.203368 121 2 153
-0.064248 -0.978148 0.197736 119 2 152
-0.084565 -0.978148 0.189937 116 2 151
-0.103956 -0.978148 0.180057 114 2 150
-0.122207 -0.978148 0.168204 111 2 148
-0.139120 -0.978148 0.154508 109 2 147
-0.154508 -0.978148 0.139120 107 2 145
-0.168204 -0.978148 0.122207 106 2 143
-0.180057 -0.978148 0.103956 104 2 140
-0.189937 -0.978148 0.084565 103 2 138
-0.197736 -0.978148 0.064248 102 2 135
-0.203368 -0.978148 0.043227 101 2 133
-0.206773 -0.978148 0.021733 101 2 130
-0.207912 -0.978148 0.000000 100 2 127
-0.206773 -0.978148 -0.021733 101 2 124
-0.203368 -0.978148 -0.043227 101 2 121
-0.197736 -0.978148 -0.064248 102 2 119
-0.189937 -0.978148 -0.084565 103 2 116
-0.180057 -0.978148 -0.103956 104 2 114
-0.168204 -0.978148 -0.122207 106 2 111
-0.154508 -0.978148 -0.139120 107 2 109
-0.139120 -0.978148 -0.154508 109 2 107
-0.122207 -0.978148 -0.168204 111 2 106
-0.103956 -0.978148 -0.180057 114 2 104
-0.084565 -0.978148 -0.189937 116 2 103
-0.064248 -0.978148 -0.197736 119 2 102
-0.043227 -0.978148 -0.203368 121 2 101
-0.021733 -0.978148 -0.206773 124 2 101
-0.000000 -0.978148 -0.207912 127 2 100
0.021733 -0.978148 -0.206773 130 2 101
0.043227 -0.978148 -0.203368 133 2 101
0.064248 -0.978148 -0.197736 135 2 102
0.084565 -0.978148 -0.189937 138 2 103
0.103956 -0.978148 -0.180057 140 2 104
0.122207 -0.978148 -0.168204 143 2 106
0.139120 -0.978148 -0.154508 145 2 107
0.154508 -0.978148 -0.139120 147 2 109
0.168204 -0.978148 -0.122207 148 2 111
0.180057 -0.978148 -0.103956 150 2 114
0.189937 -0.978148 -0.084565 151 2 116
0.197736 -0.978148 -0.064248 152 2 119
0.203368 -0.978148 -0.043227 153 2 121
0.206773 -0.978148 -0.021733 153 2 124
0.104528 -0.994522 0.000000 140 0 127
0.103956 -0.994522 0.010926 140 0 128
0.102244 -0.994522 0.021733 140 0 130
0.099412 -0.994522 0.032301 140 0 131
0.095492 -0.994522 0.042516 139 0 132
0.090524 -0.994522 0.052264 139 0 134
0.084565 -0.994522 0.061440 138 0 135
0.077680 -0.994522 0.069943 137 0 136
0.069943 -0.994522 0.077680 136 0 137
0.061440 -0.994522 0.084565 135 0 138
0.052264 -0.994522 0.090524 134 0 139
0.042516 -0.994522 0.095492 132 0 139
0.032301 -0.994522 0.099412 131 0 140
0.021733 -0.994522 0.102244 130 0 140
0.010926 -0.994522 0.103956 128 0 140
0.000000 -0.994522 0.104528 127 0 140
-0.010926 -0.994522 0.103956 126 0 140
-0.021733 -0.994522 0.102244 124 0 140
-0.032301 -0.994522 0.099412 123 0 140
-0.042516 -0.994522 0.095492 122 0 139
-0.052264 -0.994522 0.090524 120 0 139
-0.061440 -0.994522 0.084565 119 0 138
-0.069943 -0.994522 0.077680 118 0 137
-0.077680 -0.994522 0.069943 117 0 136
-0.084565 -0.994522 0.061440 116 0 135
-0.090524 -0.994522 0.052264 115 0 134
-0.095492 -0.994522 0.042516 115 0 132
-0.099412 -0.994522 0.032301 114 0 131
-0.102244 -0.994522 0.021733 114 0 130
-0.103956 -0.994522 0.010926 114 0 128
-0.104528 -0.994522 0.000000 114 0 127
-0.103956 -0.994522 -0.010926 114 0 126
-0.102244 -0.994522 -0.021733 114 0 124
-0.099412 -0.994522 -0.032301 114 0 123
-0.095492 -0.994522 -0.042516 115 0 122
-0.090524 -0.994522 -0.052264 115 0 120
-0.084565 -0.994522 -0.061440 116 0 119
-0.077680 -0.994522 -0.069943 117 0 118
-0.069943 -0.994522 -0.077680 118 0 117
-0.061440 -0.994522 -0.084565 119 0 116
-0.052264 -0.994522 -0.090524 120 0 115
-0.042516 -0.994522 -0.095492 122 0 115
-0.032301 -0.994522 -0.099412 123 0 114
-0.021733 -0.994522 -0.102244 124 0 114
-0.010926 -0.994522 -0.103956 126 0 114
-0.000000 -0.994522 -0.104528 127 0 114
0.010926 -0.994522 -0.103956 128 0 114
0.021733 -0.994522 -0.102244 130 0 114
0.032301 -0.994522 -0.099412 131 0 114
0.042516 -0.994522 -0.095492 132 0 115
0.052264 -0.994522 -0.090524 134 0 115
0.061440 -0.994522 -0.084565 135 0 116
0.069943 -0.994522 -0.077680 136 0 117
0.077680 -0.994522 -0.069943 137 0 118
0.084565 -0.994522 -0.061440 138 0 119
0.090524 -0.994522 -0.052264 139 0 120
0.095492 -0.994522 -0.042516 139 0 122
0.099412 -0.994522 -0.032301 140 0 123
0.102244 -0.994522 -0.021733 140 0 124
0.103956 -0.994522 -0.010926 140 0 126
0.000000 -1.000000 0.000000 127 0 127
0.000000 -1.000000 0.000000 127 0 127
0.000000 -1.000000 0.000000 127 0 127
0.000000 -1.000000 0.000000 127 0 127
0.000000 -1.000000 0.000000 127 0 127
0.000000 -1.000000 0.000000 127 0 127
0.000000 -1.000000 0.000000 127 0 127
0.000000 -1.000000 0.000000 127 0 127
0.000000 -1.000000 0.000000 127 0 127
0.000000 -1.000000 0.000000 127 0 127
0.000000 -1.000000 0.000000 127 0 127
0.000000 -1.000000 0.000000 127 0 127
0.000000 -1.000000 0.000000 127 0 127
0.000000 -1.000000 0.000000 127 0 127
0.000000 -1.000000 0.000000 127 0 127
0.000000 -1.000000 0.000000 127 0 127
-0.000000 -1.000000 0.000000 127 0 127
-0.000000 -1.000000 0.000000 127 0 127
-0.000000 -1.000000 0.000000 127 0 127
-0.000000 -1.000000 0.000000 127 0 127
-0.000000 -1.000000 0.000000 127 0 127
-0.000000 -1.000000 0.000000 127 0 127
-0.000000 -1.000000 0.000000 127 0 127
-0.000000 -1.000000 0.000000 127 0 127
-0.000000 -1.000000 0.000000 127 0 127
-0.000000 -1.000000 0.000000 127 0 127
-0.000000 -1.000000 0.000000 127 0 127
-0.000000 -1.000000 0.000000 127 0 127
-0.000000 -1.000000 0.000000 127 0 127
-0.000000 -1.000000 0.000000 127 0 127
-0.000000 -1.000000 0.000000 127 0 127
-0.000000 -1.000000 -0.000000 127 0 127
-0.000000 -1.000000 -0.000000 127 0 127
-0.000000 -1.000000 -0.000000 127 0 127
-0.000000 -1.000000 -0.000000 127 0 127
-0.000000 -1.000000 -0.000000 127 0 127
-0.000000 -1.000000 -0.000000 127 0 127
-0.000000 -1.000000 -0.000000 127 0 127
-0.000000 -1.000000 -0.000000 127 0 127
-0.000000 -1.000000 -0.000000 127 0 127
-0.000000 -1.000000 -0.000000 127 0 127
-0.000000 -1.000000 -0.000000 127 0 127
-0.000000 -1.000000 -0.000000 127 0 127
-0.000000 -1.000000 -0.000000 127 0 127
-0.000000 -1.000000 -0.000000 127 0 127
-0.000000 -1.000000 -0.000000 127 0 127
0.000000 -1.000000 -0.000000 127 0 127
0.000000 -1.000000 -0.000000 127 0 127
0.000000 -1.000000 -0.000000 127 0 127
0.000000 -1.000000 -0.000000 127 0 127
0.000000 -1.000000 -0.000000 127 0 127
0.000000 -1.000000 -0.000000 127 0 127
0.000000 -1.000000 -0.000000 127 0 127
0.000000 -1.000000 -0.000000 127 0 127
0.000000 -1.000000 -0.000000 127 0 127
0.000000 -1.000000 -0.000000 127 0 127
0.000000 -1.000000 -0.000000 127 0 127
0.000000 -1.000000 -0.000000 127 0 127
0.000000 -1.000000 -0.000000 127 0 127
0.000000 -1.000000 -0.000000 127 0 127
